<?xml version="1.0" encoding="UTF-8" standalone="no"?>
<!DOCTYPE svg PUBLIC "-//W3C//DTD SVG 1.1//EN" "http://www.w3.org/Graphics/SVG/1.1/DTD/svg11.dtd">
<svg width="100%" height="100%" viewBox="0 0 5034 5345" version="1.1" xmlns="http://www.w3.org/2000/svg" xmlns:xlink="http://www.w3.org/1999/xlink" xml:space="preserve" xmlns:serif="http://www.serif.com/" style="fill-rule:evenodd;clip-rule:evenodd;stroke-linejoin:round;stroke-miterlimit:2;">
    <g transform="matrix(5.55556,0,0,5.55556,0,0)">
        <g transform="matrix(1,0,0,1,-150.26,-697.802)">
            <g transform="matrix(0.999715,0,0,0.999915,0.300716,-0.106875)">
                <path d="M1005.53,834.751L902.59,1594.81C897.529,1632.18 865.63,1660.05 827.927,1660.05L378.336,1660.05C340.633,1660.05 308.734,1632.18 303.674,1594.81L200.731,834.751L1005.53,834.751Z" style="fill:rgb(37,163,78);fill-rule:nonzero;"/>
            </g>
            <g transform="matrix(0.999715,0,0,0.999915,0.300716,0.198497)">
                <path d="M1019.97,697.663L186.289,697.663C166.248,697.663 150.002,713.909 150.002,733.95L150.002,767.023C150.002,787.064 166.248,803.31 186.289,803.31L1019.97,803.31C1040.01,803.31 1056.26,787.064 1056.26,767.023L1056.26,733.95C1056.26,713.909 1040.01,697.663 1019.97,697.663Z" style="fill:rgb(37,163,78);fill-rule:nonzero;"/>
            </g>
            <g transform="matrix(0.999715,0,0,0.999915,0.300716,0.0458112)">
                <path d="M460.363,1109.67L498.173,1043.11C507.754,1026.25 525.754,1015.77 545.15,1015.77C554.688,1015.77 564.087,1018.31 572.331,1023.11C580.57,1027.9 587.417,1034.82 592.131,1043.11L600.44,1057.74L544.32,1156.53L460.363,1109.67Z" style="fill:white;fill-rule:nonzero;"/>
            </g>
            <g transform="matrix(0.999715,0,0,0.999915,0.300716,0.0458112)">
                <path d="M754.706,1082.07L715.718,1139.72L646.759,1142.31L655.264,1137.56L658.683,1135.66L602.701,1037.11C597.893,1028.65 591.274,1021.36 583.376,1015.77L669.892,1015.77C689.175,1015.77 707.069,1026.19 716.602,1042.96L742.639,1088.8L746.05,1086.9L754.706,1082.07Z" style="fill:white;fill-rule:nonzero;"/>
            </g>
            <g transform="matrix(0.999715,0,0,0.999915,0.300716,0.0458112)">
                <path d="M510.501,1231.25L502.072,1226.14L498.207,1223.8L440.17,1321.15C435.194,1329.51 432.12,1338.86 431.168,1348.49L388.433,1273.27C378.909,1256.5 379.128,1235.79 388.997,1219.23L415.994,1173.94L416.019,1173.95L412.146,1171.6L403.565,1166.4L473.77,1171.88L510.501,1231.25Z" style="fill:white;fill-rule:nonzero;"/>
            </g>
            <g transform="matrix(0.999715,0,0,0.999915,0.300716,0.0458112)">
                <path d="M497.023,1409.07C477.626,1409.07 459.625,1398.59 450.046,1381.73C448.875,1379.67 447.832,1377.51 446.943,1375.31C444.249,1368.65 442.922,1361.64 442.998,1354.47C443.059,1348.53 444.097,1342.66 446.083,1337.04C447.27,1333.68 448.794,1330.43 450.614,1327.37L459.228,1312.92L572.846,1312.92L573.573,1409.07L497.023,1409.07Z" style="fill:white;fill-rule:nonzero;"/>
            </g>
            <g transform="matrix(0.999715,0,0,0.999915,0.300716,0.0458112)">
                <path d="M798.907,1306.47L756.172,1381.69C746.648,1398.46 728.753,1408.87 709.461,1408.87L657.934,1408.87L657.824,1422.83L626.886,1360.31L658.767,1298.95L658.658,1312.73L770.807,1312.73C780.474,1312.73 790.15,1310.57 798.907,1306.47Z" style="fill:white;fill-rule:nonzero;"/>
            </g>
            <g transform="matrix(0.999715,0,0,0.999915,0.300716,0.0458112)">
                <path d="M753.986,1300.57L695.81,1202.98L778.022,1153.13L817.22,1218.88C827.15,1235.54 827.369,1256.37 817.789,1273.23C813.078,1281.52 806.23,1288.44 797.986,1293.24C789.749,1298.04 780.35,1300.57 770.808,1300.57L753.986,1300.57Z" style="fill:white;fill-rule:nonzero;"/>
            </g>
        </g>
    </g>
</svg>
